HIERARCHY
ROOT Hips
{
	OFFSET 0.000000 0.000000 0.000000
	CHANNELS 6 Xposition Yposition Zposition Zrotation Yrotation Xrotation 
	JOINT LowerBack
	{
		OFFSET 0.000000 0.000000 0.000000
		CHANNELS 3 Zrotation Yrotation Xrotation
		JOINT Spine
		{
			OFFSET 0.028270 2.035590 -0.193380
			CHANNELS 3 Zrotation Yrotation Xrotation
			JOINT Spine1
			{
				OFFSET 0.056720 2.048850 -0.042750
				CHANNELS 3 Zrotation Yrotation Xrotation
				JOINT Neck
				{
					OFFSET 0.000000 0.000000 0.000000
					CHANNELS 3 Zrotation Yrotation Xrotation
					JOINT Neck1
					{
						OFFSET -0.054170 1.746240 0.172020
						CHANNELS 3 Zrotation Yrotation Xrotation
						JOINT Head
						{
							OFFSET 0.104070 1.761360 -0.123970
							CHANNELS 3 Zrotation Yrotation Xrotation
							End Site
							{
								OFFSET 0.000000 0.000000 0.000000
							}
						}
					}
				}
				JOINT LeftShoulder
				{
					OFFSET 0.000000 0.000000 0.000000
					CHANNELS 3 Zrotation Yrotation Xrotation
					JOINT LeftArm
					{
						OFFSET 3.362410 1.200890 -0.311210
						CHANNELS 3 Zrotation Yrotation Xrotation
						JOINT LeftForeArm
						{
							OFFSET 4.983000 -0.000000 -0.000000
							CHANNELS 3 Zrotation Yrotation Xrotation
							JOINT LeftHand
							{
								OFFSET 3.483560 -0.000000 -0.000000
								CHANNELS 3 Zrotation Yrotation Xrotation
								JOINT LeftFingerBase
								{
									OFFSET 0.000000 0.000000 0.000000
									CHANNELS 3 Zrotation Yrotation Xrotation
									JOINT LeftHandIndex1
									{
										OFFSET 0.715260 -0.000000 -0.000000
										CHANNELS 3 Zrotation Yrotation Xrotation
										End Site
										{
											OFFSET 0.000000 0.000000 0.000000
										}
									}
								}
								JOINT LThumb
								{
									OFFSET 0.000000 0.000000 0.000000
									CHANNELS 3 Zrotation Yrotation Xrotation
									End Site
									{
										OFFSET 0.000000 0.000000 0.000000
									}
								}
							}
						}
					}
				}
				JOINT RightShoulder
				{
					OFFSET 0.000000 0.000000 0.000000
					CHANNELS 3 Zrotation Yrotation Xrotation
					JOINT RightArm
					{
						OFFSET -3.136600 1.374050 -0.404650
						CHANNELS 3 Zrotation Yrotation Xrotation
						JOINT RightForeArm
						{
							OFFSET -5.241900 -0.000000 -0.000000
							CHANNELS 3 Zrotation Yrotation Xrotation
							JOINT RightHand
							{
								OFFSET -3.444170 -0.000000 -0.000000
								CHANNELS 3 Zrotation Yrotation Xrotation
								JOINT RightFingerBase
								{
									OFFSET 0.000000 0.000000 0.000000
									CHANNELS 3 Zrotation Yrotation Xrotation
									JOINT RightHandIndex1
									{
										OFFSET -0.622530 -0.000000 -0.000000
										CHANNELS 3 Zrotation Yrotation Xrotation
										End Site
										{
											OFFSET 0.000000 0.000000 0.000000
										}
									}
								}
								JOINT RThumb
								{
									OFFSET 0.000000 0.000000 0.000000
									CHANNELS 3 Zrotation Yrotation Xrotation
									End Site
									{
										OFFSET 0.000000 0.000000 0.000000
									}
								}
							}
						}
					}
				}
			}
		}
	}
}
}
MOTION
Frames: 9
Frame Time: 0.008333
3.290172 16.709416 0.264859 -179.158381 -62.079817 -169.800049 -1.396276 -0.911238 -8.089845 -0.134216 -1.059465 -3.998916 -2.567131 -1.217185 1.911579 10.495936 -15.751601 -12.547118 -0.714249 0.015158 -1.283994 0.000000 0.000000 0.000000 9.831295 18.952309 1.490774 -51.041175 15.779854 -21.119106 -178.370185 -49.530866 -179.984290 -1.850484 -2.558588 0.052795 0.073245 0.551679 0.000000 0.000000 0.000000 0.000000 0.000000 0.000000 0.000000 -0.350694 -7.025515 -1.829603 27.061965 33.391438 -6.431270 -178.870087 58.905758 179.822492 -17.013962 4.992402 -0.879549 0.431696 -0.753221 -0.000000 0.000000 0.000000 0.000000 0.000000 0.000000 0.000000 
3.246436 16.742684 0.277533 -178.856161 -59.696557 -169.861541 -0.672593 -0.941141 -8.468418 0.058870 -1.171110 -4.046924 -2.451209 -1.336632 2.034175 10.711151 -15.853052 -12.729135 -0.689474 0.020063 -1.335232 0.000000 0.000000 0.000000 9.680184 19.187860 1.578756 -51.678630 16.573699 -21.880901 -178.392365 -49.312159 -179.982744 -2.033176 -1.752146 0.042575 0.079747 0.523112 0.000000 0.000000 0.000000 0.000000 0.000000 0.000000 0.000000 -0.183200 -7.050029 -1.837213 27.704032 34.458227 -5.153209 -178.933019 58.821218 179.825974 -16.535617 5.144221 -0.879008 0.424072 -0.763481 -0.000000 0.000000 0.000000 0.000000 0.000000 0.000000 0.000000 
3.200936 16.783311 0.288497 -178.617691 -57.414827 -169.857625 0.089699 -0.984897 -8.860892 0.249555 -1.303507 -4.102180 -2.379658 -1.473871 2.129425 10.884065 -15.999268 -12.862926 -0.681983 0.022760 -1.372720 0.000000 0.000000 0.000000 9.546787 19.236650 1.632910 -51.720532 17.114322 -22.397484 -178.427316 -49.146356 -179.983063 -1.967631 -1.010218 0.027505 0.077122 0.497718 -0.000000 0.000000 0.000000 0.000000 0.000000 0.000000 0.000000 0.046534 -7.165861 -1.812094 28.307473 35.531980 -3.895209 -179.026017 58.797740 179.830644 -15.974558 5.262351 -0.867376 0.414697 -0.772221 -0.000000 0.000000 0.000000 0.000000 0.000000 0.000000 0.000000 
3.155405 16.829725 0.297413 -178.427717 -55.256249 -169.809734 0.874547 -1.036903 -9.258385 0.432978 -1.449120 -4.164994 -2.357919 -1.620392 2.188481 11.016542 -16.200166 -12.937988 -0.692358 0.023063 -1.393783 0.000000 0.000000 0.000000 9.472158 19.055722 1.648404 -51.104106 17.373503 -22.592205 -178.474059 -49.088353 -179.985072 -1.681074 -0.407000 0.014188 0.066395 0.478016 -0.000000 0.000000 0.000000 0.000000 0.000000 0.000000 0.000000 0.348177 -7.392067 -1.748386 28.834193 36.624221 -2.694843 -179.145827 58.845935 179.836017 -15.378599 5.340549 -0.846741 0.404933 -0.779326 -0.000000 0.000000 0.000000 0.000000 0.000000 0.000000 0.000000 
3.111883 16.880219 0.305006 -178.266152 -53.235683 -169.759586 1.684635 -1.096895 -9.635643 0.608783 -1.606412 -4.229745 -2.392162 -1.773479 2.211765 11.099262 -16.405150 -12.940604 -0.718429 0.021059 -1.395303 0.000000 0.000000 0.000000 9.448001 18.698768 1.629447 -49.735453 17.207938 -22.401854 -178.521443 -49.252385 -179.988557 -1.203157 0.002002 0.005925 0.047485 0.466207 -0.000000 0.000000 0.000000 0.000000 0.000000 0.000000 0.000000 0.683550 -7.692096 -1.658107 29.310215 37.695685 -1.577435 -179.281438 58.951604 179.841726 -14.780303 5.386135 -0.820605 0.395081 -0.784810 -0.000000 0.000000 0.000000 0.000000 0.000000 0.000000 0.000000 
3.072147 16.932787 0.311138 -178.125573 -51.380955 -169.720388 2.479720 -1.155403 -9.995090 0.766528 -1.761993 -4.296410 -2.486955 -1.919400 2.201306 11.165028 -16.636219 -12.855959 -0.757864 0.016762 -1.373355 0.000000 0.000000 0.000000 9.527229 18.120153 1.579748 -47.627079 16.554525 -21.865001 -178.573702 -49.782932 -179.992783 -0.637919 0.129013 0.002890 0.024549 0.465414 -0.000000 0.000000 0.000000 0.000000 0.000000 0.000000 0.000000 1.092630 -8.100985 -1.536103 29.674812 38.749207 -0.585054 -179.422732 59.120683 179.847054 -14.243836 5.391512 -0.792057 0.386840 -0.788517 -0.000000 0.000000 0.000000 0.000000 0.000000 0.000000 0.000000 
3.038028 16.985509 0.316792 -177.993386 -49.716366 -169.726071 3.237980 -1.210070 -10.321382 0.900828 -1.910148 -4.359401 -2.644546 -2.052286 2.166378 11.234165 -16.856452 -12.667166 -0.803731 0.010609 -1.323629 0.000000 0.000000 0.000000 9.691643 17.371092 1.515473 -44.767636 15.256764 -21.066052 -178.630513 -50.882641 -179.997175 -0.059309 -0.055202 0.001467 -0.000036 0.476798 -0.000000 0.000000 0.000000 0.000000 0.000000 0.000000 0.000000 1.559580 -8.595461 -1.397099 29.945576 39.723518 0.255958 -179.553416 59.333580 179.851560 -13.804154 5.366220 -0.764703 0.380312 -0.790432 -0.000000 0.000000 0.000000 0.000000 0.000000 0.000000 0.000000 
3.010683 17.036613 0.322717 -177.859072 -48.269543 -169.798069 3.920548 -1.261282 -10.608802 1.003870 -2.046674 -4.415381 -2.860926 -2.168796 2.116438 11.345814 -17.040587 -12.360866 -0.847113 0.003197 -1.242305 0.000000 0.000000 0.000000 9.915222 16.488577 1.458648 -41.194796 13.221566 -20.162868 -178.704934 -52.780844 179.998677 0.482969 -0.536574 -0.003268 -0.023640 0.499329 -0.000000 0.000000 0.000000 0.000000 0.000000 0.000000 0.000000 2.090220 -9.157033 -1.255143 30.121104 40.553971 0.919269 -179.656802 59.575738 179.854829 -13.494058 5.316314 -0.741551 0.375458 -0.790316 -0.000000 0.000000 0.000000 0.000000 0.000000 0.000000 0.000000 
2.990779 17.084569 0.329798 -177.712132 -47.066665 -169.953263 4.486677 -1.315924 -10.848970 1.070407 -2.172995 -4.462224 -3.120035 -2.272305 2.055818 11.541227 -17.165091 -11.933197 -0.876767 -0.004623 -1.127732 0.000000 0.000000 0.000000 10.157636 15.502490 1.432882 -36.984816 10.460315 -19.336202 -178.821566 -55.699583 179.994568 1.014787 -1.249730 -0.015021 -0.045057 0.529284 -0.000000 0.000000 0.000000 0.000000 0.000000 0.000000 0.000000 2.682091 -9.756265 -1.126798 30.208020 41.170305 1.386190 -179.718809 59.830241 179.856646 -13.330587 5.249454 -0.724215 0.371820 -0.787913 -0.000000 0.000000 0.000000 0.000000 0.000000 0.000000 0.000000 
